<svg width="9" height="9" viewBox="0 0 9 9" fill="none" xmlns="http://www.w3.org/2000/svg">
<g clip-path="url(#clip0_424_1016)">
<path d="M3.97476 6.225L6.61851 3.58125L6.09351 3.05625L3.97476 5.175L2.90601 4.10625L2.38101 4.63125L3.97476 6.225ZM4.49976 8.25C3.98101 8.25 3.49351 8.15156 3.03726 7.95469C2.58101 7.75781 2.18413 7.49063 1.84663 7.15313C1.50913 6.81563 1.24194 6.41875 1.04507 5.9625C0.848193 5.50625 0.749756 5.01875 0.749756 4.5C0.749756 3.98125 0.848193 3.49375 1.04507 3.0375C1.24194 2.58125 1.50913 2.18438 1.84663 1.84688C2.18413 1.50938 2.58101 1.24219 3.03726 1.04531C3.49351 0.848438 3.98101 0.75 4.49976 0.75C5.01851 0.75 5.50601 0.848438 5.96226 1.04531C6.41851 1.24219 6.81538 1.50938 7.15288 1.84688C7.49038 2.18438 7.75757 2.58125 7.95444 3.0375C8.15132 3.49375 8.24976 3.98125 8.24976 4.5C8.24976 5.01875 8.15132 5.50625 7.95444 5.9625C7.75757 6.41875 7.49038 6.81563 7.15288 7.15313C6.81538 7.49063 6.41851 7.75781 5.96226 7.95469C5.50601 8.15156 5.01851 8.25 4.49976 8.25ZM4.49976 7.5C5.33726 7.5 6.04663 7.20938 6.62788 6.62813C7.20913 6.04688 7.49976 5.3375 7.49976 4.5C7.49976 3.6625 7.20913 2.95313 6.62788 2.37188C6.04663 1.79063 5.33726 1.5 4.49976 1.5C3.66226 1.5 2.95288 1.79063 2.37163 2.37188C1.79038 2.95313 1.49976 3.6625 1.49976 4.5C1.49976 5.3375 1.79038 6.04688 2.37163 6.62813C2.95288 7.20938 3.66226 7.5 4.49976 7.5Z" fill="#0B8400"/>
</g>
<defs>
<clipPath id="clip0_424_1016">
<rect width="9" height="9" fill="white"/>
</clipPath>
</defs>
</svg>
