<svg width="24" height="24" viewBox="0 0 24 24" fill="none" xmlns="http://www.w3.org/2000/svg">
<path d="M17.2501 18H22.0001V20H15.2501L17.2501 18ZM4.75012 20L2.62512 17.875C2.24179 17.4917 2.04595 17.0167 2.03762 16.45C2.02929 15.8833 2.21679 15.4 2.60012 15L13.6001 3.6C13.9835 3.2 14.4543 3 15.0126 3C15.571 3 16.0418 3.19167 16.4251 3.575L21.4001 8.55C21.7835 8.93333 21.9751 9.40833 21.9751 9.975C21.9751 10.5417 21.7835 11.0167 21.4001 11.4L13.0001 20H4.75012ZM12.1501 18L20.0001 9.95L15.0501 5L4.00012 16.4L5.60012 18H12.1501Z" fill="#C7C7C7"/>
</svg>
