<svg width="9" height="9" viewBox="0 0 9 9" fill="none" xmlns="http://www.w3.org/2000/svg">
<path d="M3.97505 6C3.97505 5.49375 4.02036 5.12969 4.11099 4.90781C4.20161 4.68594 4.3938 4.44375 4.68755 4.18125C4.9438 3.95625 5.13911 3.76094 5.27349 3.59531C5.40786 3.42969 5.47505 3.24063 5.47505 3.02813C5.47505 2.77188 5.38911 2.55938 5.21724 2.39063C5.04536 2.22188 4.8063 2.1375 4.50005 2.1375C4.1813 2.1375 3.93911 2.23438 3.77349 2.42813C3.60786 2.62188 3.49067 2.81875 3.42192 3.01875L2.4563 2.60625C2.58755 2.20625 2.82817 1.85938 3.17817 1.56563C3.52817 1.27187 3.9688 1.125 4.50005 1.125C5.1563 1.125 5.66099 1.30781 6.01411 1.67344C6.36724 2.03906 6.5438 2.47813 6.5438 2.99063C6.5438 3.30313 6.47661 3.57031 6.34224 3.79219C6.20786 4.01406 5.99692 4.26563 5.70942 4.54688C5.40317 4.84063 5.21724 5.06406 5.15161 5.21719C5.08599 5.37031 5.05317 5.63125 5.05317 6H3.97505ZM4.50005 8.25C4.2938 8.25 4.11724 8.17656 3.97036 8.02969C3.82349 7.88281 3.75005 7.70625 3.75005 7.5C3.75005 7.29375 3.82349 7.11719 3.97036 6.97031C4.11724 6.82344 4.2938 6.75 4.50005 6.75C4.7063 6.75 4.88286 6.82344 5.02974 6.97031C5.17661 7.11719 5.25005 7.29375 5.25005 7.5C5.25005 7.70625 5.17661 7.88281 5.02974 8.02969C4.88286 8.17656 4.7063 8.25 4.50005 8.25Z" fill="#DC9600"/>
</svg>
